<svg width="14" height="13" viewBox="0 0 14 13" fill="none" xmlns="http://www.w3.org/2000/svg">
<path fill-rule="evenodd" clip-rule="evenodd" d="M7.2552 11.9951C7.17371 11.9139 7.10907 11.8173 7.06496 11.711C7.02085 11.6047 6.99814 11.4908 6.99814 11.3757C6.99814 11.2606 7.02085 11.1466 7.06496 11.0403C7.10907 10.934 7.17371 10.8375 7.2552 10.7562L11.8873 6.12589L7.2552 1.49558C7.17385 1.41423 7.10931 1.31766 7.06529 1.21137C7.02126 1.10508 6.9986 0.991157 6.9986 0.87611C6.9986 0.761063 7.02126 0.647143 7.06529 0.540853C7.10931 0.434563 7.17385 0.337986 7.2552 0.256636C7.33655 0.175286 7.43312 0.110754 7.53941 0.066728C7.6457 0.0227017 7.75962 4.23697e-05 7.87467 4.23798e-05C7.98972 4.23898e-05 8.10364 0.0227017 8.20993 0.0667281C8.31622 0.110754 8.41279 0.175286 8.49414 0.256636L13.7439 5.50642C13.8254 5.58769 13.8901 5.68425 13.9342 5.79055C13.9783 5.89685 14.001 6.0108 14.001 6.12589C14.001 6.24098 13.9783 6.35494 13.9342 6.46124C13.8901 6.56753 13.8254 6.66409 13.7439 6.74536L8.49414 11.9951C8.41287 12.0766 8.31631 12.1413 8.21001 12.1854C8.10371 12.2295 7.98976 12.2522 7.87467 12.2522C7.75958 12.2522 7.64562 12.2295 7.53932 12.1854C7.43302 12.1413 7.33647 12.0766 7.2552 11.9951Z" fill="#D8AD3D"/>
<path fill-rule="evenodd" clip-rule="evenodd" d="M13.124 6.12586C13.124 6.35792 13.0318 6.58047 12.8678 6.74455C12.7037 6.90864 12.4811 7.00082 12.2491 7.00082L0.874537 7.00082C0.642482 7.00082 0.41993 6.90864 0.255843 6.74455C0.0917559 6.58046 -0.000426236 6.35791 -0.000426216 6.12586C-0.000426196 5.8938 0.091756 5.67125 0.255843 5.50717C0.419931 5.34308 0.642482 5.2509 0.874537 5.2509L12.2491 5.2509C12.4811 5.2509 12.7037 5.34308 12.8678 5.50717C13.0318 5.67125 13.124 5.89381 13.124 6.12586Z" fill="#D8AD3D"/>
</svg>
